<svg width="420" height="48" viewBox="0 0 420 48" fill="none" xmlns="http://www.w3.org/2000/svg">
<rect width="48" height="48" rx="24" fill="#D9D9D9"/>
<path d="M22.8764 31.3C22.5164 31.3 22.1364 31.2733 21.7364 31.22C21.3364 31.18 20.9497 31.12 20.5764 31.04C20.2031 30.96 19.8631 30.8733 19.5564 30.78C19.2497 30.6867 19.0097 30.6 18.8364 30.52L19.4164 28.04C19.7631 28.1867 20.2031 28.3467 20.7364 28.52C21.2831 28.68 21.9564 28.76 22.7564 28.76C23.6764 28.76 24.3497 28.5867 24.7764 28.24C25.2031 27.8933 25.4164 27.4267 25.4164 26.84C25.4164 26.48 25.3364 26.18 25.1764 25.94C25.0297 25.6867 24.8231 25.4867 24.5564 25.34C24.2897 25.18 23.9697 25.0733 23.5964 25.02C23.2364 24.9533 22.8497 24.92 22.4364 24.92H21.2764V22.52H22.5964C22.8897 22.52 23.1697 22.4933 23.4364 22.44C23.7164 22.3867 23.9631 22.3 24.1764 22.18C24.3897 22.0467 24.5564 21.8733 24.6764 21.66C24.8097 21.4333 24.8764 21.1533 24.8764 20.82C24.8764 20.5667 24.8231 20.3467 24.7164 20.16C24.6097 19.9733 24.4697 19.82 24.2964 19.7C24.1364 19.58 23.9431 19.4933 23.7164 19.44C23.5031 19.3733 23.2831 19.34 23.0564 19.34C22.4831 19.34 21.9497 19.4267 21.4564 19.6C20.9764 19.7733 20.5364 19.9867 20.1364 20.24L19.0764 18.06C19.2897 17.9267 19.5364 17.7867 19.8164 17.64C20.1097 17.4933 20.4297 17.36 20.7764 17.24C21.1231 17.12 21.4897 17.02 21.8764 16.94C22.2764 16.86 22.6964 16.82 23.1364 16.82C23.9497 16.82 24.6497 16.92 25.2364 17.12C25.8364 17.3067 26.3297 17.58 26.7164 17.94C27.1031 18.2867 27.3897 18.7 27.5764 19.18C27.7631 19.6467 27.8564 20.16 27.8564 20.72C27.8564 21.2667 27.7031 21.8 27.3964 22.32C27.0897 22.8267 26.6764 23.2133 26.1564 23.48C26.8764 23.7733 27.4297 24.2133 27.8164 24.8C28.2164 25.3733 28.4164 26.0667 28.4164 26.88C28.4164 27.52 28.3097 28.1133 28.0964 28.66C27.8831 29.1933 27.5497 29.66 27.0964 30.06C26.6431 30.4467 26.0631 30.7533 25.3564 30.98C24.6631 31.1933 23.8364 31.3 22.8764 31.3Z" fill="black"/>
<line x1="419.002" y1="24" x2="84.0034" y2="25.0308" stroke="#808080" stroke-opacity="0.2" stroke-width="2"/>
</svg>
