<svg width="386" height="48" viewBox="0 0 386 48" fill="none" xmlns="http://www.w3.org/2000/svg">
<rect width="48" height="48" rx="24" fill="#D9D9D9"/>
<path d="M28.2364 20.78C28.2364 21.2867 28.1364 21.7733 27.9364 22.24C27.7364 22.7067 27.4764 23.16 27.1564 23.6C26.8364 24.0267 26.4764 24.44 26.0764 24.84C25.6764 25.24 25.2831 25.62 24.8964 25.98C24.6964 26.1667 24.4764 26.38 24.2364 26.62C24.0097 26.8467 23.7897 27.08 23.5764 27.32C23.3631 27.56 23.1697 27.7867 22.9964 28C22.8364 28.2 22.7364 28.3667 22.6964 28.5H28.6564V31H19.4164C19.3897 30.8533 19.3764 30.6667 19.3764 30.44C19.3764 30.2133 19.3764 30.0533 19.3764 29.96C19.3764 29.32 19.4764 28.7333 19.6764 28.2C19.8897 27.6667 20.1631 27.1733 20.4964 26.72C20.8297 26.2533 21.2031 25.82 21.6164 25.42C22.0431 25.02 22.4631 24.62 22.8764 24.22C23.1964 23.9133 23.4964 23.6267 23.7764 23.36C24.0564 23.08 24.3031 22.8133 24.5164 22.56C24.7297 22.2933 24.8964 22.0333 25.0164 21.78C25.1364 21.5133 25.1964 21.2467 25.1964 20.98C25.1964 20.3933 25.0297 19.98 24.6964 19.74C24.3631 19.5 23.9497 19.38 23.4564 19.38C23.0964 19.38 22.7564 19.44 22.4364 19.56C22.1297 19.6667 21.8431 19.8 21.5764 19.96C21.3231 20.1067 21.1031 20.26 20.9164 20.42C20.7297 20.5667 20.5897 20.6867 20.4964 20.78L19.0164 18.7C19.6031 18.1533 20.2831 17.7067 21.0564 17.36C21.8431 17 22.6831 16.82 23.5764 16.82C24.3897 16.82 25.0897 16.9133 25.6764 17.1C26.2631 17.2867 26.7431 17.5533 27.1164 17.9C27.5031 18.2333 27.7831 18.6467 27.9564 19.14C28.1431 19.62 28.2364 20.1667 28.2364 20.78Z" fill="black"/>
<line x1="385.002" y1="24" x2="84.0033" y2="24.9261" stroke="#808080" stroke-opacity="0.2" stroke-width="2"/>
</svg>
